# xmcd
#
# Track frame offsets:
#	150
#	14817
#	32445
#	49092
#	64455
#	78182
#	95995
#	110802
#	124202
#	140337
#	154632
#	170082
#
# Disc length: 2484 seconds
# Revision: 1
# Processed by: cddbd v1.5.2PL0 Copyright (c) Steve Scherf et al.
# Submitted via: dBpowerAMP V12.0
#
DISCID=ab09b20c
DTITLE=Willie Nelson - The Offenders Reunion: Can't Get the Hell Out of Texas
DYEAR=1997
DGENRE=Country
TTITLE0=Can't Get the Hell Out of Texas
TTITLE1=Linda on My Mind
TTITLE2=I'm So Ashamed
TTITLE3=Daybreak
TTITLE4=Walk Me to the Door
TTITLE5=Sleepwalk
TTITLE6=Are You Sure This Is Where You Want to Be
TTITLE7=She's Not for You
TTITLE8=I Know I Love You
TTITLE9=There She Goes
TTITLE10=Hey, Good Lookin'
TTITLE11=Rainy Day Blues
EXTD=
EXTT0=
EXTT1=
EXTT2=
EXTT3=
EXTT4=
EXTT5=
EXTT6=
EXTT7=
EXTT8=
EXTT9=
EXTT10=
EXTT11=
PLAYORDER=
